<mxfile host="app.diagrams.net" modified="2021-06-06T06:10:05.359Z" agent="5.0 (Windows NT 10.0; Win64; x64) AppleWebKit/537.36 (KHTML, like Gecko) Chrome/91.0.4472.77 Safari/537.36" etag="MDIQ9GpE-TZqMqb8YRpP" version="14.7.6" type="github">
  <diagram id="7oxJ0wnCMozg3qypmlYR" name="Page-1">
    <mxGraphModel dx="2062" dy="1126" grid="1" gridSize="10" guides="1" tooltips="1" connect="1" arrows="1" fold="1" page="1" pageScale="1" pageWidth="850" pageHeight="1100" math="0" shadow="0">
      <root>
        <mxCell id="0" />
        <mxCell id="1" parent="0" />
        <mxCell id="U2oYpNuSIP0lWnTNW8He-1" value="" style="shape=internalStorage;whiteSpace=wrap;html=1;backgroundOutline=1;" vertex="1" parent="1">
          <mxGeometry x="90" y="260" width="670" height="470" as="geometry" />
        </mxCell>
        <mxCell id="U2oYpNuSIP0lWnTNW8He-2" value="" style="shape=process;whiteSpace=wrap;html=1;backgroundOutline=1;" vertex="1" parent="1">
          <mxGeometry x="120" y="290" width="210" height="80" as="geometry" />
        </mxCell>
      </root>
    </mxGraphModel>
  </diagram>
</mxfile>
